{"title":"Saving Private Ryan","uid":5639883,"size":2645919212,"categoryP":"video","categoryS":"hd___movies","magnet":"?xt=urn:btih:3548b405463f8b70717f6c731091ecf4d71bc5db&amp;dn=Saving+Private+Ryan&amp;tr=udp%3A%2F%2Ftracker.openbittorrent.com%3A80&amp;tr=udp%3A%2F%2Fopen.demonii.com%3A1337&amp;tr=udp%3A%2F%2Ftracker.coppersurfer.tk%3A6969&amp;tr=udp%3A%2F%2Fexodus.desync.com%3A6969","seeders":1,"leechers":0,"uploader":"VKSH3385","files":-1,"time":1277056129,"description":"General\nComplete name                    : Saving Private Ryan.mkv\nFormat                           : Matroska\nFile size                        : 2.46 GiB\nDuration                         : 2h 42mn\nOverall bit rate                 : 2 171 Kbps\nEncoded date                     : UTC 2010-06-20 15:05:52\nWriting application              : mkvmerge v4.0.0 ('The Stars were mine') built on Jun  6 2010 16:18:42\nWriting library                  : libebml v1.0.0 + libmatroska v1.0.0\n\nVideo\nID                               : 1\nFormat                           : MPEG Video\nFormat version                   : Version 2\nFormat profile                   : Main@Main\nFormat settings, BVOP            : No\nFormat settings, Matrix          : Default\nCodec ID                         : V_MPEG2\nCodec ID/Info                    : MPEG 1 or 2 Video\nDuration                         : 2h 42mn\nBit rate mode                    : Variable\nBit rate                         : 1 936 Kbps\nNominal bit rate                 : 3 000 Kbps\nWidth                            : 720 pixels\nHeight                           : 576 pixels\nDisplay aspect ratio             : 16:9\nFrame rate                       : 50.000 fps\nOriginal frame rate              : 25.000 fps\nStandard                         : PAL\nColor space                      : YUV\nChroma subsampling               : 4:2:0\nBit depth                        : 8 bits\nScan type                        : Interlaced\nScan order                       : Top Field First\nBits/(Pixel*Frame)               : 0.093\nStream size                      : 2.20 GiB (89%)\n\nAudio\nID                               : 2\nFormat                           : MPEG Audio\nFormat version                   : Version 1\nFormat profile                   : Layer 3\nMode                             : Joint stereo\nCodec ID                         : A_MPEG/L3\nCodec ID/Hint                    : MP3\nDuration                         : 2h 42mn\nBit rate mode                    : Constant\nBit rate                         : 192 Kbps\nChannel(s)                       : 2 channels\nSampling rate                    : 44.1 KHz\nVideo delay                      : -187ms\nStream size                      : 223 MiB (9%)\nWriting library                  : LAME3.97\n\nScreenshots:\n &lt;a href=&quot;\nhttp://img153.imageshack.us/img153/6521/savingprivateryanmkvsna.jpg&quot; rel=&quot;nofollow&quot; target=&quot;_NEW&quot;&gt;\nhttp://img153.imageshack.us/img153/6521/savingprivateryanmkvsna.jpg&lt;/a&gt;\n &lt;a href=&quot;\nhttp://img149.imageshack.us/img149/6521/savingprivateryanmkvsna.jpg&quot; rel=&quot;nofollow&quot; target=&quot;_NEW&quot;&gt;\nhttp://img149.imageshack.us/img149/6521/savingprivateryanmkvsna.jpg&lt;/a&gt;\n &lt;a href=&quot;\nhttp://img717.imageshack.us/img717/6521/savingprivateryanmkvsna.jpg&quot; rel=&quot;nofollow&quot; target=&quot;_NEW&quot;&gt;\nhttp://img717.imageshack.us/img717/6521/savingprivateryanmkvsna.jpg&lt;/a&gt;\n &lt;a href=&quot;\nhttp://img541.imageshack.us/img541/6521/savingprivateryanmkvsna.jpg&quot; rel=&quot;nofollow&quot; target=&quot;_NEW&quot;&gt;\nhttp://img541.imageshack.us/img541/6521/savingprivateryanmkvsna.jpg&lt;/a&gt;\n &lt;a href=&quot;\nhttp://img694.imageshack.us/img694/6521/savingprivateryanmkvsna.jpg&quot; rel=&quot;nofollow&quot; target=&quot;_NEW&quot;&gt;\nhttp://img694.imageshack.us/img694/6521/savingprivateryanmkvsna.jpg&lt;/a&gt;\n &lt;a href=&quot;\nhttp://img143.imageshack.us/img143/7495/savingprivateryanmkvthu.jpg&quot; rel=&quot;nofollow&quot; target=&quot;_NEW&quot;&gt;\nhttp://img143.imageshack.us/img143/7495/savingprivateryanmkvthu.jpg&lt;/a&gt;\n","torrent":{"xt":"urn:btih:3548b405463f8b70717f6c731091ecf4d71bc5db","amp;dn":"Saving+Private+Ryan","amp;tr":["udp%3A%2F%2Ftracker.openbittorrent.com%3A80","udp%3A%2F%2Fopen.demonii.com%3A1337","udp%3A%2F%2Ftracker.coppersurfer.tk%3A6969","udp%3A%2F%2Fexodus.desync.com%3A6969"],"infoHash":"3548b405463f8b70717f6c731091ecf4d71bc5db","infoHashBuffer":{"type":"Buffer","data":[53,72,180,5,70,63,139,112,113,127,108,115,16,145,236,244,215,27,197,219]},"announce":[],"urlList":[]}}